<mxfile host="app.diagrams.net" modified="2023-03-20T19:21:15.638Z" agent="5.0 (Windows NT 10.0; Win64; x64) AppleWebKit/537.36 (KHTML, like Gecko) Chrome/111.0.0.0 Safari/537.36" etag="fhigTMfo5qMYWblXJ-lF" version="21.0.6" type="github">
  <diagram name="Page-1" id="OBbU5LkjNYjtkTjGJsoU">
    <mxGraphModel dx="1050" dy="573" grid="0" gridSize="10" guides="1" tooltips="1" connect="1" arrows="1" fold="1" page="1" pageScale="1" pageWidth="850" pageHeight="1100" math="0" shadow="0">
      <root>
        <mxCell id="0" />
        <mxCell id="1" parent="0" />
        <mxCell id="L6N7WXhGx-ivGEDh7BCt-2" value="&lt;div style=&quot;color: rgb(253, 254, 255); background-color: rgb(3, 13, 34); font-family: Consolas, &amp;quot;Courier New&amp;quot;, monospace; font-size: 14px; line-height: 19px;&quot;&gt;As a &lt;span style=&quot;color: #ff2e97;font-weight: bold;&quot;&gt;**Music Fan**&lt;/span&gt;&lt;span style=&quot;color: #e1efff;&quot;&gt;, I would like to be able to track and rate the music I have listened to.&lt;/span&gt;&lt;/div&gt;" style="text;html=1;strokeColor=none;fillColor=none;align=center;verticalAlign=middle;whiteSpace=wrap;rounded=0;" parent="1" vertex="1">
          <mxGeometry x="20" y="50" width="470" height="30" as="geometry" />
        </mxCell>
        <mxCell id="L6N7WXhGx-ivGEDh7BCt-7" value="" style="rounded=0;whiteSpace=wrap;html=1;" parent="1" vertex="1">
          <mxGeometry x="15" y="110" width="820" height="320" as="geometry" />
        </mxCell>
        <mxCell id="L6N7WXhGx-ivGEDh7BCt-3" value="Music Fan" style="shape=umlActor;verticalLabelPosition=bottom;verticalAlign=top;html=1;outlineConnect=0;" parent="1" vertex="1">
          <mxGeometry x="50" y="230" width="60" height="80" as="geometry" />
        </mxCell>
        <mxCell id="L6N7WXhGx-ivGEDh7BCt-5" value="" style="endArrow=classic;html=1;rounded=0;" parent="1" target="L6N7WXhGx-ivGEDh7BCt-9" edge="1">
          <mxGeometry width="50" height="50" relative="1" as="geometry">
            <mxPoint x="110" y="269.5" as="sourcePoint" />
            <mxPoint x="220" y="269.5" as="targetPoint" />
            <Array as="points" />
          </mxGeometry>
        </mxCell>
        <mxCell id="L6N7WXhGx-ivGEDh7BCt-9" value="Landing Page" style="rounded=0;whiteSpace=wrap;html=1;" parent="1" vertex="1">
          <mxGeometry x="160" y="130" width="160" height="280" as="geometry" />
        </mxCell>
        <mxCell id="L6N7WXhGx-ivGEDh7BCt-14" value="" style="endArrow=classic;html=1;rounded=0;entryX=0;entryY=0.5;entryDx=0;entryDy=0;" parent="1" target="L6N7WXhGx-ivGEDh7BCt-15" edge="1">
          <mxGeometry width="50" height="50" relative="1" as="geometry">
            <mxPoint x="320" y="269.5" as="sourcePoint" />
            <mxPoint x="370" y="270" as="targetPoint" />
            <Array as="points" />
          </mxGeometry>
        </mxCell>
        <mxCell id="L6N7WXhGx-ivGEDh7BCt-15" value="Form to Add Album Information and Ratings" style="rounded=0;whiteSpace=wrap;html=1;" parent="1" vertex="1">
          <mxGeometry x="380" y="130" width="160" height="280" as="geometry" />
        </mxCell>
        <mxCell id="L6N7WXhGx-ivGEDh7BCt-17" value="" style="endArrow=classic;html=1;rounded=0;entryX=0;entryY=0.5;entryDx=0;entryDy=0;" parent="1" edge="1">
          <mxGeometry width="50" height="50" relative="1" as="geometry">
            <mxPoint x="540" y="269.5" as="sourcePoint" />
            <mxPoint x="600" y="270" as="targetPoint" />
            <Array as="points" />
          </mxGeometry>
        </mxCell>
        <mxCell id="L6N7WXhGx-ivGEDh7BCt-18" value="User Listening History Page" style="rounded=0;whiteSpace=wrap;html=1;" parent="1" vertex="1">
          <mxGeometry x="610" y="130" width="160" height="280" as="geometry" />
        </mxCell>
        <mxCell id="L6N7WXhGx-ivGEDh7BCt-19" value="&lt;div style=&quot;color: rgb(253, 254, 255); background-color: rgb(3, 13, 34); font-family: Consolas, &amp;quot;Courier New&amp;quot;, monospace; font-weight: normal; font-size: 14px; line-height: 19px;&quot;&gt;&lt;div&gt;&lt;span style=&quot;color: #e1efff;&quot;&gt;As a &lt;/span&gt;&lt;span style=&quot;color: #ff2e97;font-weight: bold;&quot;&gt;**User**&lt;/span&gt;&lt;span style=&quot;color: #e1efff;&quot;&gt;, I would like my listening history and reviews to stay on the website, even after I have left.&lt;/span&gt;&lt;/div&gt;&lt;/div&gt;" style="text;whiteSpace=wrap;html=1;" parent="1" vertex="1">
          <mxGeometry x="20" y="480" width="560" height="60" as="geometry" />
        </mxCell>
        <mxCell id="L6N7WXhGx-ivGEDh7BCt-20" value="" style="rounded=0;whiteSpace=wrap;html=1;" parent="1" vertex="1">
          <mxGeometry x="20" y="550" width="820" height="320" as="geometry" />
        </mxCell>
        <mxCell id="L6N7WXhGx-ivGEDh7BCt-22" value="User" style="shape=umlActor;verticalLabelPosition=bottom;verticalAlign=top;html=1;outlineConnect=0;" parent="1" vertex="1">
          <mxGeometry x="50" y="670" width="60" height="80" as="geometry" />
        </mxCell>
        <mxCell id="L6N7WXhGx-ivGEDh7BCt-23" value="Landing Page" style="rounded=0;whiteSpace=wrap;html=1;" parent="1" vertex="1">
          <mxGeometry x="170" y="570" width="160" height="280" as="geometry" />
        </mxCell>
        <mxCell id="L6N7WXhGx-ivGEDh7BCt-25" value="" style="endArrow=classic;html=1;rounded=0;" parent="1" edge="1">
          <mxGeometry width="50" height="50" relative="1" as="geometry">
            <mxPoint x="120" y="709.5" as="sourcePoint" />
            <mxPoint x="170" y="710" as="targetPoint" />
            <Array as="points" />
          </mxGeometry>
        </mxCell>
        <mxCell id="L6N7WXhGx-ivGEDh7BCt-26" value="" style="endArrow=classic;html=1;rounded=0;" parent="1" edge="1">
          <mxGeometry width="50" height="50" relative="1" as="geometry">
            <mxPoint x="330" y="709.5" as="sourcePoint" />
            <mxPoint x="380" y="710" as="targetPoint" />
            <Array as="points" />
          </mxGeometry>
        </mxCell>
        <mxCell id="L6N7WXhGx-ivGEDh7BCt-27" value="User Listening History Page" style="rounded=0;whiteSpace=wrap;html=1;" parent="1" vertex="1">
          <mxGeometry x="390" y="570" width="160" height="280" as="geometry" />
        </mxCell>
        <mxCell id="L6N7WXhGx-ivGEDh7BCt-28" value="" style="endArrow=classic;html=1;rounded=0;" parent="1" edge="1">
          <mxGeometry width="50" height="50" relative="1" as="geometry">
            <mxPoint x="550" y="709.5" as="sourcePoint" />
            <mxPoint x="600" y="710" as="targetPoint" />
            <Array as="points" />
          </mxGeometry>
        </mxCell>
        <mxCell id="L6N7WXhGx-ivGEDh7BCt-29" value="Album Information Page" style="rounded=0;whiteSpace=wrap;html=1;" parent="1" vertex="1">
          <mxGeometry x="610" y="570" width="160" height="280" as="geometry" />
        </mxCell>
      </root>
    </mxGraphModel>
  </diagram>
</mxfile>
